# xmcd
#
# Track frame offsets:
#	150
#	12908
#	25329
#	38147
#	50660
#	63742
#	76261
#	93858
#	115351
#	147564
#	165354
#	193954
#	220468
#	245293
#	263391
#
# Disc length: 3769 seconds
#
# Revision: 1
# Processed by: cddbd v1.5.2PL0 Copyright (c) Steve Scherf et al.
# Submitted via: audiograbber 1.83.01
#
DISCID=d00eb70f
DTITLE=Various Artist - Rhythm and Soul n°5
DYEAR=1900
DGENRE=
TTITLE0=Booker T. and The MG's - Green onions
TTITLE1=James Brown - I got you (I feel good)
TTITLE2=The Jackson 5 - ABC
TTITLE3=Mary Wells - My guy
TTITLE4=The Temptations - My girl
TTITLE5=Stevie Wonder - For once in my life
TTITLE6=Dionne Warwick - Heartbreaker
TTITLE7=Barry White - Just the way you are
TTITLE8=Maze - Joy and pain
TTITLE9=Lipps Inc. - Funkytown
TTITLE10=Imagination - Just an illusion
TTITLE11=BB and Q Band - On the beat
TTITLE12=Gap Band - Burn rubber on me (Why you wanna hurt me)
TTITLE13=Cameo - Word up
TTITLE14=Heavy D and The Boyz - Now that we found love
EXTD=
EXTT0=
EXTT1=
EXTT2=
EXTT3=
EXTT4=
EXTT5=
EXTT6=
EXTT7=
EXTT8=
EXTT9=
EXTT10=
EXTT11=
EXTT12=
EXTT13=
EXTT14=
PLAYORDER=
